<svg id="Layer_1" data-name="Layer 1" xmlns="http://www.w3.org/2000/svg" viewBox="0 0 102.85 1355.68"><title>curly-bracket</title><path d="M437.33,710.4c-0.54-23.48,3.51-55.84,7.69-88.19,4.43-34.3,9.34-68.55,13.41-102.89,3.81-32.15,6.83-64.46,6-96.83-1.06-42.7-9.53-83.8-31.63-121.13a163.14,163.14,0,0,0-11.2-15.92c-5-6.54-5.45-10.19-.5-16.36,16.71-20.85,27-44.76,33.76-70.35,9-33.92,11.25-68.43,8.66-103.31-1.62-21.8-3.13-43.62-5.59-65.33-3.13-27.54-7.14-55-10.83-82.44-6.17-46-11.44-92-9.41-138.54,1.51-34.65,5.31-69,13.77-102.67,1.81-7.2,5-14.1,8-21,11.63-26.54,23.42-53,41.16-76.26a55.37,55.37,0,0,1,7.69-8.12c3.06-2.65,6.47-2.46,9.59-.08,2.57,2,3.41,5.26,1.46,8.79-3.79,6.88-7.73,13.7-12,20.3a198.26,198.26,0,0,0-28.58,70.33,462.72,462.72,0,0,0-7.52,55.23c-1,14.63,0,29.52,1.44,44.16,4.42,44.24,9.42,88.42,14.37,132.6,2.27,20.23,5.48,40.36,7.35,60.62a573.68,573.68,0,0,1,1.39,86.51A463.08,463.08,0,0,1,485,157.39c-8.9,38.26-23.46,74.08-45.17,107-10,15.13-9.83,10-.41,24.23,23.17,34.95,38.21,73.08,47,113.85,9.88,45.89,12.54,92.34,9.05,139-2,26.88-5.71,53.63-8.76,80.43-3.56,31.27-7.67,62.49-10.7,93.81-2.25,23.23-3.2,46.6-4.7,69.9-1,15.32,1.23,30.43,3.36,45.51,3.31,23.46,8.87,46.38,19.34,67.76,5.15,10.51,11.44,20.46,17.29,30.62,2.43,4.22,5.19,8.24,7.56,12.49s1.51,7.94-2.28,10.86c-3.6,2.78-6.5,2.79-10.08-1.42a180.7,180.7,0,0,1-15.36-20.26,362.34,362.34,0,0,1-36-73.89c-6.59-18.93-9.92-38.66-12.71-58.45C438.75,772.6,437.44,746.16,437.33,710.4Z" transform="translate(-417.64 400.83)"/></svg>