<svg id="Trace_Bracket" data-name="Trace Bracket" xmlns="http://www.w3.org/2000/svg" viewBox="0 0 44.35 589.6"><title>my-curly-bracket</title><path d="M407.77,337.41s-21.28,35.68-21,47.8c1.08,48.75,40.59,137,33.47,194C418.3,594.58,376.76,632,376.76,632s32-39.21,33.79-53.32c6.16-48.3-32.71-145.06-33.79-193.74C376.47,372.14,401.1,337,401.1,337s-24.65-33.88-24.34-47.54c1.08-48.67,40-145.44,33.79-193.74-1.8-14.1-33.79-53.32-33.79-53.32s41.54,37.43,43.47,52.81c7.12,56.95-31.39,145.23-32.47,194-0.27,12.11,20,47.8,20,47.8" transform="translate(-376.75 -42.41)"/></svg>