<svg id="Edit_bracket" data-name="Edit bracket" xmlns="http://www.w3.org/2000/svg" viewBox="0 0 47.26 582.2"><title>my-curly-bracket</title><path d="M350.77,338c-18,16.85-24.28,35.68-24,47.8,1.08,48.75,50,116.86,32.47,194-7,30.84-43.47,48.81-43.47,48.81s24.21-21.16,32.79-51.32c13.71-76.56-32.79-143-32.79-191.74,0-35.77,24.34-47.54,24.34-47.54h0s-24.35-12.77-24.34-48.54c0-48.69,46.5-115.18,32.79-191.74C340,67.57,315.76,46.41,315.76,46.41s36.46,18,43.47,48.81c17.53,77.13-31.39,145.23-32.47,194-0.27,12.11,6,31.95,24,48.8" transform="translate(-315.76 -46.41)"/></svg>